<svg xmlns="http://www.w3.org/2000/svg" viewBox="0 0 24 24" role="img" aria-hidden="true">
  <path fill="#ffffff" d="M20.52 3.48A11.88 11.88 0 0 0 12.06 0C5.48 0 .12 5.36.12 11.94c0 2.1.55 4.14 1.6 5.95L0 24l6.29-1.65a11.88 11.88 0 0 0 5.77 1.47h.01c6.58 0 11.94-5.36 11.94-11.94 0-3.19-1.24-6.19-3.49-8.4ZM12.07 21.8h-.01a9.9 9.9 0 0 1-5.05-1.39l-.36-.21-3.73.98.99-3.64-.24-.37a9.9 9.9 0 0 1-1.53-5.26c0-5.46 4.45-9.9 9.92-9.9 2.65 0 5.14 1.03 7.01 2.9a9.84 9.84 0 0 1 2.9 7c0 5.47-4.45 9.92-9.9 9.92Zm5.44-7.42c-.3-.15-1.77-.87-2.05-.96-.27-.1-.47-.15-.66.15-.2.3-.76.96-.93 1.15-.17.2-.35.22-.65.07-.3-.15-1.25-.46-2.38-1.47a8.95 8.95 0 0 1-1.65-2.05c-.17-.3-.02-.46.13-.61.14-.14.3-.35.45-.52.15-.17.2-.3.3-.5.1-.2.05-.37-.02-.52-.08-.15-.67-1.62-.92-2.22-.24-.58-.49-.5-.67-.51h-.57c-.2 0-.52.07-.79.37-.27.3-1.04 1.01-1.04 2.47 0 1.45 1.07 2.86 1.22 3.06.15.2 2.1 3.21 5.08 4.5.71.3 1.27.48 1.7.62.72.23 1.38.2 1.9.12.58-.08 1.77-.72 2.03-1.42.25-.7.25-1.3.18-1.42-.08-.12-.27-.2-.57-.35Z"/>
</svg>
